<svg width="36" height="35" viewBox="0 0 36 35" fill="none" xmlns="http://www.w3.org/2000/svg">
<path opacity="0.4" d="M17.1235 0.596305C17.5032 -0.0952697 18.4968 -0.0952691 18.8765 0.596306L24.2475 10.3775C24.3961 10.6482 24.6615 10.835 24.9664 10.8837L34.8953 12.4684C35.7319 12.6019 36.0338 13.6502 35.3964 14.2083L27.6809 20.9631C27.4168 21.1943 27.2932 21.5472 27.3555 21.8928L29.3683 33.0625C29.5179 33.8929 28.6352 34.524 27.8979 34.1137L18.4862 28.8769C18.1839 28.7087 17.8161 28.7087 17.5138 28.8769L8.1021 34.1137C7.36478 34.524 6.4821 33.8929 6.63174 33.0625L8.6445 21.8928C8.70677 21.5472 8.58325 21.1943 8.31907 20.9631L0.603636 14.2083C-0.0338072 13.6502 0.268107 12.6019 1.10474 12.4684L11.0336 10.8837C11.3385 10.835 11.6039 10.6482 11.7525 10.3775L17.1235 0.596305Z" fill="white"/>
</svg>
