<svg width="28" height="28" viewBox="0 0 28 28" fill="none" xmlns="http://www.w3.org/2000/svg">
<path d="M14.3 27.3332C6.93601 27.3332 0.966675 21.3638 0.966675 13.9998C0.966675 6.63584 6.93601 0.666504 14.3 0.666504C21.664 0.666504 27.6333 6.63584 27.6333 13.9998C27.6333 21.3638 21.664 27.3332 14.3 27.3332ZM8.96668 16.6665V19.3332H19.6333V16.6665H8.96668ZM8.96668 12.6665C9.49711 12.6665 10.0058 12.4558 10.3809 12.0807C10.756 11.7056 10.9667 11.1969 10.9667 10.6665C10.9667 10.1361 10.756 9.62736 10.3809 9.25229C10.0058 8.87722 9.49711 8.6665 8.96668 8.6665C8.43624 8.6665 7.92753 8.87722 7.55246 9.25229C7.17739 9.62736 6.96668 10.1361 6.96668 10.6665C6.96668 11.1969 7.17739 11.7056 7.55246 12.0807C7.92753 12.4558 8.43624 12.6665 8.96668 12.6665ZM19.6333 12.6665C20.1638 12.6665 20.6725 12.4558 21.0476 12.0807C21.4226 11.7056 21.6333 11.1969 21.6333 10.6665C21.6333 10.1361 21.4226 9.62736 21.0476 9.25229C20.6725 8.87722 20.1638 8.6665 19.6333 8.6665C19.1029 8.6665 18.5942 8.87722 18.2191 9.25229C17.8441 9.62736 17.6333 10.1361 17.6333 10.6665C17.6333 11.1969 17.8441 11.7056 18.2191 12.0807C18.5942 12.4558 19.1029 12.6665 19.6333 12.6665Z" fill="#CC6EF8"/>
</svg>
