<svg width="28" height="28" viewBox="0 0 28 28" fill="none" xmlns="http://www.w3.org/2000/svg">
<path d="M13.9001 0.666504C21.2641 0.666504 27.2334 6.63584 27.2334 13.9998C27.2334 21.3638 21.2641 27.3332 13.9001 27.3332C6.53611 27.3332 0.566772 21.3638 0.566772 13.9998C0.566772 6.63584 6.53611 0.666504 13.9001 0.666504ZM13.9001 12.6665C11.2334 12.6665 9.01077 13.1105 7.23344 13.9998C7.23344 15.7679 7.93582 17.4636 9.18606 18.7139C10.4363 19.9641 12.132 20.6665 13.9001 20.6665C15.6682 20.6665 17.3639 19.9641 18.6142 18.7139C19.8644 17.4636 20.5668 15.7679 20.5668 13.9998C18.7894 13.1105 16.5668 12.6665 13.9001 12.6665ZM9.23344 7.33317C7.69744 7.33317 6.40411 8.37317 6.01744 9.7865L5.96677 9.99984H12.5001C12.3464 9.24693 11.9373 8.57024 11.342 8.0843C10.7468 7.59836 10.0019 7.33301 9.23344 7.33317ZM18.5668 7.33317C17.0308 7.33317 15.7374 8.37317 15.3508 9.7865L15.3001 9.99984H21.8334C21.6798 9.24693 21.2707 8.57024 20.6754 8.0843C20.0801 7.59836 19.3352 7.33301 18.5668 7.33317Z" fill="#6CFF69"/>
</svg>
