<svg width="28" height="28" viewBox="0 0 28 28" fill="none" xmlns="http://www.w3.org/2000/svg">
<path d="M14.1001 0.666504C21.4641 0.666504 27.4334 6.63584 27.4334 13.9998C27.4366 16.0818 26.9502 18.1352 26.0134 19.9945C25.9155 19.6149 25.7343 19.2619 25.4827 18.9612L25.3187 18.7812L23.4334 16.8958L21.5481 18.7812L21.3921 18.9505C21.0542 19.3521 20.8424 19.8444 20.7831 20.3658C20.7238 20.8872 20.8196 21.4145 21.0586 21.8817C21.2976 22.3489 21.6692 22.7352 22.1267 22.9922C22.5842 23.2492 23.1074 23.3655 23.6307 23.3265C22.3901 24.5968 20.9076 25.6058 19.2707 26.2939C17.6338 26.982 15.8757 27.3354 14.1001 27.3332C6.73606 27.3332 0.766724 21.3638 0.766724 13.9998C0.766724 6.63584 6.73606 0.666504 14.1001 0.666504ZM14.1001 17.9998C12.2601 17.9998 10.5934 18.7465 9.38806 19.9505L9.16672 20.1825L10.4267 21.3292C11.4801 20.9092 12.7427 20.6665 14.1001 20.6665C15.3067 20.6665 16.4387 20.8585 17.4147 21.1945L17.7734 21.3278L19.0334 20.1812C18.4091 19.4931 17.6476 18.9435 16.7979 18.5678C15.9481 18.1921 15.0291 17.9986 14.1001 17.9998ZM9.43339 11.3332C8.90296 11.3332 8.39425 11.5439 8.01918 11.919C7.6441 12.294 7.43339 12.8027 7.43339 13.3332C7.43339 13.8636 7.6441 14.3723 8.01918 14.7474C8.39425 15.1225 8.90296 15.3332 9.43339 15.3332C9.96382 15.3332 10.4725 15.1225 10.8476 14.7474C11.2227 14.3723 11.4334 13.8636 11.4334 13.3332C11.4334 12.8027 11.2227 12.294 10.8476 11.919C10.4725 11.5439 9.96382 11.3332 9.43339 11.3332ZM18.7667 11.3332C18.2363 11.3332 17.7276 11.5439 17.3525 11.919C16.9774 12.294 16.7667 12.8027 16.7667 13.3332C16.7667 13.8636 16.9774 14.3723 17.3525 14.7474C17.7276 15.1225 18.2363 15.3332 18.7667 15.3332C19.2972 15.3332 19.8059 15.1225 20.1809 14.7474C20.556 14.3723 20.7667 13.8636 20.7667 13.3332C20.7667 12.8027 20.556 12.294 20.1809 11.919C19.8059 11.5439 19.2972 11.3332 18.7667 11.3332V11.3332Z" fill="#F542CE"/>
</svg>
