<svg width="27" height="28" viewBox="0 0 27 28" fill="none" xmlns="http://www.w3.org/2000/svg">
<path d="M13.5001 27.3332C6.13608 27.3332 0.166748 21.3638 0.166748 13.9998C0.166748 6.63584 6.13608 0.666504 13.5001 0.666504C20.8641 0.666504 26.8334 6.63584 26.8334 13.9998C26.8334 21.3638 20.8641 27.3332 13.5001 27.3332ZM6.83342 15.3332C6.83342 17.1013 7.53579 18.797 8.78604 20.0472C10.0363 21.2975 11.732 21.9998 13.5001 21.9998C15.2682 21.9998 16.9639 21.2975 18.2141 20.0472C19.4644 18.797 20.1667 17.1013 20.1667 15.3332H17.5001C17.5001 16.394 17.0787 17.4115 16.3285 18.1616C15.5784 18.9117 14.5609 19.3332 13.5001 19.3332C12.4392 19.3332 11.4218 18.9117 10.6717 18.1616C9.92151 17.4115 9.50008 16.394 9.50008 15.3332H6.83342ZM8.16675 12.6665C8.69718 12.6665 9.20589 12.4558 9.58096 12.0807C9.95604 11.7056 10.1667 11.1969 10.1667 10.6665C10.1667 10.1361 9.95604 9.62736 9.58096 9.25229C9.20589 8.87722 8.69718 8.6665 8.16675 8.6665C7.63632 8.6665 7.12761 8.87722 6.75253 9.25229C6.37746 9.62736 6.16675 10.1361 6.16675 10.6665C6.16675 11.1969 6.37746 11.7056 6.75253 12.0807C7.12761 12.4558 7.63632 12.6665 8.16675 12.6665ZM18.8334 12.6665C19.3638 12.6665 19.8726 12.4558 20.2476 12.0807C20.6227 11.7056 20.8334 11.1969 20.8334 10.6665C20.8334 10.1361 20.6227 9.62736 20.2476 9.25229C19.8726 8.87722 19.3638 8.6665 18.8334 8.6665C18.303 8.6665 17.7943 8.87722 17.4192 9.25229C17.0441 9.62736 16.8334 10.1361 16.8334 10.6665C16.8334 11.1969 17.0441 11.7056 17.4192 12.0807C17.7943 12.4558 18.303 12.6665 18.8334 12.6665Z" fill="#A4B2FF"/>
</svg>
