<svg width="28" height="28" viewBox="0 0 28 28" fill="none" xmlns="http://www.w3.org/2000/svg">
<path d="M13.7 27.3332C6.33603 27.3332 0.366699 21.3638 0.366699 13.9998C0.366699 6.63584 6.33603 0.666504 13.7 0.666504C21.064 0.666504 27.0334 6.63584 27.0334 13.9998C27.0334 21.3638 21.064 27.3332 13.7 27.3332ZM8.3667 15.3332C8.3667 16.7477 8.9286 18.1042 9.9288 19.1044C10.929 20.1046 12.2855 20.6665 13.7 20.6665C15.1145 20.6665 16.4711 20.1046 17.4713 19.1044C18.4715 18.1042 19.0334 16.7477 19.0334 15.3332H8.3667ZM8.3667 12.6665C8.89713 12.6665 9.40584 12.4558 9.78091 12.0807C10.156 11.7056 10.3667 11.1969 10.3667 10.6665C10.3667 10.1361 10.156 9.62736 9.78091 9.25229C9.40584 8.87722 8.89713 8.6665 8.3667 8.6665C7.83627 8.6665 7.32756 8.87722 6.95249 9.25229C6.57741 9.62736 6.3667 10.1361 6.3667 10.6665C6.3667 11.1969 6.57741 11.7056 6.95249 12.0807C7.32756 12.4558 7.83627 12.6665 8.3667 12.6665V12.6665ZM19.0334 12.6665C19.5638 12.6665 20.0725 12.4558 20.4476 12.0807C20.8227 11.7056 21.0334 11.1969 21.0334 10.6665C21.0334 10.1361 20.8227 9.62736 20.4476 9.25229C20.0725 8.87722 19.5638 8.6665 19.0334 8.6665C18.5029 8.6665 17.9942 8.87722 17.6192 9.25229C17.2441 9.62736 17.0334 10.1361 17.0334 10.6665C17.0334 11.1969 17.2441 11.7056 17.6192 12.0807C17.9942 12.4558 18.5029 12.6665 19.0334 12.6665Z" fill="#71E5FF"/>
</svg>
